<?xml version="1.0" encoding="UTF-8" standalone="no"?>
<!-- Created with Inkscape (http://www.inkscape.org/) -->

<svg
   xmlns:dc="http://purl.org/dc/elements/1.1/"
   xmlns:cc="http://creativecommons.org/ns#"
   xmlns:rdf="http://www.w3.org/1999/02/22-rdf-syntax-ns#"
   xmlns:svg="http://www.w3.org/2000/svg"
   xmlns="http://www.w3.org/2000/svg"
   xmlns:sodipodi="http://sodipodi.sourceforge.net/DTD/sodipodi-0.dtd"
   xmlns:inkscape="http://www.inkscape.org/namespaces/inkscape"
   id="svg3004"
   version="1.1"
   inkscape:version="0.48.3.1 r9886"
   width="561.0625"
   height="477.9"
   xml:space="preserve"
   sodipodi:docname="Whizard-Logo.eps"><metadata
     id="metadata3010"><rdf:RDF><cc:Work
         rdf:about=""><dc:format>image/svg+xml</dc:format><dc:type
           rdf:resource="http://purl.org/dc/dcmitype/StillImage" /><dc:title></dc:title></cc:Work></rdf:RDF></metadata><defs
     id="defs3008" /><sodipodi:namedview
     pagecolor="#ffffff"
     bordercolor="#666666"
     borderopacity="1"
     objecttolerance="10"
     gridtolerance="10"
     guidetolerance="10"
     inkscape:pageopacity="0"
     inkscape:pageshadow="2"
     inkscape:window-width="1600"
     inkscape:window-height="832"
     id="namedview3006"
     showgrid="false"
     inkscape:zoom="1.3789496"
     inkscape:cx="280.53125"
     inkscape:cy="238.95"
     inkscape:window-x="-2"
     inkscape:window-y="-3"
     inkscape:window-maximized="1"
     inkscape:current-layer="g3012" /><g
     id="g3012"
     inkscape:groupmode="layer"
     inkscape:label="ink_ext_XXXXXX"
     transform="matrix(1.25,0,0,-1.25,0,477.9)"><g
       id="g3014"
       transform="scale(0.1,0.1)"><path
         d="m 0,1237.56 3.10547,71.4 L 1828.97,1051.91 1774.61,913.961 c -274.14,21.84 -481.08,-4.223 -620.47,-25.82 -139.33,-21.582 -221.253,-71.129 -245.699,-148.61 -33.769,-107.011 65.743,-210.312 298.369,-310 232.68,-99.672 536.07,-210.961 916.36,-275.281 367.13,-62.0898 689.59,-56.2109 961.41,-41.051 271.91,15.121 423.56,72.68 455.08,172.582 24.83,78.668 -20.17,152.379 -135.07,221.129 -114.77,68.711 -450.06,206.899 -704.95,270.731 L 2702.08,903.41 4488.45,532.949 4460,470.039 3056.43,754.16 c 0,0 670.79,-235.512 869.04,-330.371 C 4123.8,328.879 4210.44,241.91 4185.51,162.828 4154.22,63.7305 3951.42,9.96094 3577.12,1.62109 3202.78,-6.78125 2706.27,15.2617 2104.55,117 1735.6,179.398 1409.48,275.91 1109.22,357.18 808.98,438.391 583.891,520.93 433.91,604.719 283.961,688.488 219.488,763.648 240.445,830.129 266.129,911.539 403.441,963 652.398,984.531 c 248.907,21.499 858.282,20.059 858.282,20.059"
         style="fill:#ed1c24;fill-opacity:1;fill-rule:nonzero;stroke:none"
         id="path3016" /><path
         d="m 2777.27,448.609 c -40.77,4.321 -246.32,28.422 -289.95,31.231 l 203.33,2686.68 -850,-2533.34 -173.33,10 c 0,0 342.14,866.97 373.33,953.32 l 763.34,2226.68 93.33,0 -187.79,-2788.13 c -10.44,-146.21 -11.44,-269.57 -2.99,-369.96 8.48,-100.371 36.16,-102.731 83.06,-127.07 l -12.33,-89.411"
         style="fill:#2e3192;fill-opacity:1;fill-rule:nonzero;stroke:none"
         id="path3018" /></g></g></svg>